<svg width="720" height="160" viewBox="0 0 720 160" fill="none" xmlns="http://www.w3.org/2000/svg" role="img" aria-labelledby="title desc">
  <title id="title">FEDformer Probabilistic Forecasting</title>
  <desc id="desc">Wordmark for the FEDformer probabilistic time-series forecasting repository.</desc>
  <defs>
    <linearGradient id="bg" x1="0" y1="0" x2="720" y2="160" gradientUnits="userSpaceOnUse">
      <stop stop-color="#0F172A"/>
      <stop offset="1" stop-color="#1E293B"/>
    </linearGradient>
    <linearGradient id="accent" x1="64" y1="38" x2="272" y2="122" gradientUnits="userSpaceOnUse">
      <stop stop-color="#22C55E"/>
      <stop offset="1" stop-color="#38BDF8"/>
    </linearGradient>
  </defs>
  <rect x="8" y="8" width="704" height="144" rx="24" fill="url(#bg)"/>
  <rect x="32" y="40" width="216" height="80" rx="16" fill="rgba(255,255,255,0.06)"/>
  <path d="M64 94C76 80 88 62 100 62C112 62 124 84 136 84C148 84 160 50 172 50C184 50 196 104 208 104C220 104 232 76 244 64" stroke="url(#accent)" stroke-width="8" stroke-linecap="round" stroke-linejoin="round"/>
  <circle cx="100" cy="62" r="6" fill="#22C55E"/>
  <circle cx="136" cy="84" r="6" fill="#38BDF8"/>
  <circle cx="172" cy="50" r="6" fill="#F8FAFC"/>
  <circle cx="208" cy="104" r="6" fill="#38BDF8"/>
  <text x="280" y="72" fill="#F8FAFC" font-family="Segoe UI, Arial, sans-serif" font-size="36" font-weight="700">FEDformer</text>
  <text x="280" y="110" fill="#CBD5E1" font-family="Segoe UI, Arial, sans-serif" font-size="22" font-weight="500">Probabilistic Time-Series Forecasting</text>
</svg>
